<svg xmlns="http://www.w3.org/2000/svg" xmlns:xlink="http://www.w3.org/1999/xlink" width="505pt" height="257pt" viewBox="0.00 0.00 505.43 257.00">
<g id="graph0" class="graph" transform="scale(1 1) rotate(0) translate(4 253)">
<title>Architecture</title>
<polygon fill="white" stroke="none" points="-4,4 -4,-253 501.43,-253 501.43,4 -4,4"/>
<g id="clust1" class="cluster">
<title>cluster_userA</title>
<polygon fill="lightgrey" stroke="black" points="8,-135 8,-241 489.43,-241 489.43,-135 8,-135"/>
<text text-anchor="middle" x="248.71" y="-224.4" font-family="Times,serif" font-size="14.00">User A</text>
</g>
<g id="clust2" class="cluster">
<title>cluster_userB</title>
<polygon fill="lightgrey" stroke="black" points="8,-8 8,-114 344.97,-114 344.97,-8 8,-8"/>
<text text-anchor="middle" x="176.49" y="-97.4" font-family="Times,serif" font-size="14.00">User B</text>
</g>
<!-- va -->
<g id="node1" class="node">
<title>va</title>
<polygon fill="lightblue" stroke="black" points="70,-193 16,-193 16,-157 70,-157 70,-193"/>
<text text-anchor="middle" x="43" y="-172" font-family="Times,serif" font-size="10.00">View A</text>
</g>
<!-- ca -->
<g id="node2" class="node">
<title>ca</title>
<polygon fill="lightblue" stroke="black" points="216.42,-193 149.6,-193 149.6,-157 216.42,-157 216.42,-193"/>
<text text-anchor="middle" x="183.01" y="-172" font-family="Times,serif" font-size="10.00">Controller A</text>
</g>
<!-- va&#45;&gt;ca -->
<g id="edge1" class="edge">
<title>va-&gt;ca</title>
<path fill="none" stroke="blue" d="M70.25,-165.91C76.03,-164.29 82.17,-162.84 88,-162 107.18,-159.23 112.38,-159.56 131.6,-162 133.75,-162.27 135.94,-162.61 138.15,-162.99"/>
<polygon fill="blue" stroke="blue" points="137.18,-166.37 147.68,-164.95 138.59,-159.51 137.18,-166.37"/>
<text text-anchor="middle" x="109.8" y="-165" font-family="Times,serif" font-size="10.00">interacts</text>
</g>
<!-- ca&#45;&gt;va -->
<g id="edge4" class="edge">
<title>ca-&gt;va</title>
<path fill="none" stroke="blue" d="M149.25,-175C128.98,-175 102.89,-175 81.76,-175"/>
<polygon fill="blue" stroke="blue" points="81.8,-171.5 71.8,-175 81.8,-178.5 81.8,-171.5"/>
<text text-anchor="middle" x="109.8" y="-178" font-family="Times,serif" font-size="10.00">updates UI</text>
</g>
<!-- ma -->
<g id="node3" class="node">
<title>ma</title>
<polygon fill="lightblue" stroke="black" points="336.97,-179 282.97,-179 282.97,-143 336.97,-143 336.97,-179"/>
<text text-anchor="middle" x="309.97" y="-158" font-family="Times,serif" font-size="10.00">Model A</text>
</g>
<!-- ca&#45;&gt;ma -->
<g id="edge2" class="edge">
<title>ca-&gt;ma</title>
<path fill="none" stroke="blue" d="M216.87,-165.32C222.67,-163.96 228.69,-162.77 234.42,-162 246.35,-160.41 259.46,-159.84 271.3,-159.76"/>
<polygon fill="blue" stroke="blue" points="271.11,-163.26 281.13,-159.82 271.15,-156.26 271.11,-163.26"/>
<text text-anchor="middle" x="249.7" y="-165" font-family="Times,serif" font-size="10.00">updates</text>
</g>
<!-- ma&#45;&gt;ca -->
<g id="edge3" class="edge">
<title>ma-&gt;ca</title>
<path fill="none" stroke="blue" d="M282.71,-170.04C276.93,-171.66 270.8,-173.12 264.97,-174 253.07,-175.8 240.07,-176.5 228.04,-176.65"/>
<polygon fill="blue" stroke="blue" points="228.39,-173.15 218.39,-176.63 228.38,-180.15 228.39,-173.15"/>
<text text-anchor="middle" x="249.7" y="-179.46" font-family="Times,serif" font-size="10.00">notifies</text>
</g>
<!-- ld -->
<g id="node4" class="node">
<title>ld</title>
<polygon fill="lightblue" stroke="black" points="481.43,-208 403.52,-208 403.52,-172 481.43,-172 481.43,-208"/>
<text text-anchor="middle" x="442.47" y="-187" font-family="Times,serif" font-size="10.00">Local Database</text>
</g>
<!-- ma&#45;&gt;ld -->
<g id="edge6" class="edge">
<title>ma-&gt;ld</title>
<path fill="none" stroke="blue" d="M337.02,-166.95C342.92,-168.29 349.16,-169.7 354.97,-171 367.03,-173.7 380.05,-176.57 392.23,-179.25"/>
<polygon fill="blue" stroke="blue" points="391.14,-182.59 401.66,-181.32 392.64,-175.76 391.14,-182.59"/>
<text text-anchor="middle" x="370.24" y="-180.33" font-family="Times,serif" font-size="10.00">updates</text>
</g>
<!-- fs -->
<g id="node8" class="node">
<title>fs</title>
<polygon fill="lightblue" stroke="black" points="469.47,-118 415.47,-118 415.47,-82 469.47,-82 469.47,-118"/>
<text text-anchor="middle" x="442.47" y="-97" font-family="Times,serif" font-size="10.00">Firestore</text>
</g>
<!-- ma&#45;&gt;fs -->
<g id="edge5" class="edge">
<title>ma-&gt;fs</title>
<path fill="none" stroke="blue" d="M337.47,-153.86C352,-149.52 370.14,-143.39 385.52,-136 392.44,-132.67 399.55,-128.65 406.27,-124.51"/>
<polygon fill="blue" stroke="blue" points="407.97,-127.58 414.51,-119.24 404.2,-121.68 407.97,-127.58"/>
<text text-anchor="middle" x="370.24" y="-151.07" font-family="Times,serif" font-size="10.00">updates</text>
</g>
<!-- vb -->
<g id="node5" class="node">
<title>vb</title>
<polygon fill="lightblue" stroke="black" points="70,-66 16,-66 16,-30 70,-30 70,-66"/>
<text text-anchor="middle" x="43" y="-45" font-family="Times,serif" font-size="10.00">View B</text>
</g>
<!-- cb -->
<g id="node6" class="node">
<title>cb</title>
<polygon fill="lightblue" stroke="black" points="216.15,-66 149.87,-66 149.87,-30 216.15,-30 216.15,-66"/>
<text text-anchor="middle" x="183.01" y="-45" font-family="Times,serif" font-size="10.00">Controller B</text>
</g>
<!-- vb&#45;&gt;cb -->
<g id="edge8" class="edge">
<title>vb-&gt;cb</title>
<path fill="none" stroke="blue" d="M70.25,-38.91C76.03,-37.29 82.17,-35.84 88,-35 107.18,-32.23 112.38,-32.56 131.6,-35 133.78,-35.28 136.01,-35.62 138.25,-36.01"/>
<polygon fill="blue" stroke="blue" points="137.45,-39.42 147.95,-38.02 138.86,-32.57 137.45,-39.42"/>
<text text-anchor="middle" x="109.8" y="-38" font-family="Times,serif" font-size="10.00">interacts</text>
</g>
<!-- cb&#45;&gt;vb -->
<g id="edge11" class="edge">
<title>cb-&gt;vb</title>
<path fill="none" stroke="blue" d="M149.5,-48C129.12,-48 102.77,-48 81.5,-48"/>
<polygon fill="blue" stroke="blue" points="81.8,-44.5 71.8,-48 81.8,-51.5 81.8,-44.5"/>
<text text-anchor="middle" x="109.8" y="-51" font-family="Times,serif" font-size="10.00">updates UI</text>
</g>
<!-- mb -->
<g id="node7" class="node">
<title>mb</title>
<polygon fill="lightblue" stroke="black" points="336.97,-75 282.97,-75 282.97,-39 336.97,-39 336.97,-75"/>
<text text-anchor="middle" x="309.97" y="-54" font-family="Times,serif" font-size="10.00">Model B</text>
</g>
<!-- cb&#45;&gt;mb -->
<g id="edge9" class="edge">
<title>cb-&gt;mb</title>
<path fill="none" stroke="blue" d="M216.53,-37C231.39,-33.44 249.18,-31.27 264.97,-35 267.4,-35.57 269.85,-36.3 272.28,-37.15"/>
<polygon fill="blue" stroke="blue" points="270.75,-40.3 281.33,-40.86 273.41,-33.82 270.75,-40.3"/>
<text text-anchor="middle" x="249.7" y="-38" font-family="Times,serif" font-size="10.00">updates</text>
</g>
<!-- mb&#45;&gt;cb -->
<g id="edge10" class="edge">
<title>mb-&gt;cb</title>
<path fill="none" stroke="blue" d="M282.52,-55.09C266.64,-53.95 246.05,-52.47 227.8,-51.15"/>
<polygon fill="blue" stroke="blue" points="228.25,-47.68 218.03,-50.45 227.75,-54.66 228.25,-47.68"/>
<text text-anchor="middle" x="249.7" y="-56.57" font-family="Times,serif" font-size="10.00">notifies</text>
</g>
<!-- mb&#45;&gt;fs -->
<g id="edge12" class="edge">
<title>mb-&gt;fs</title>
<path fill="none" stroke="blue" d="M337.38,-65.7C356.66,-72.05 383.05,-80.75 404.44,-87.8"/>
<polygon fill="blue" stroke="blue" points="403.07,-91.03 413.67,-90.84 405.26,-84.38 403.07,-91.03"/>
<text text-anchor="middle" x="370.24" y="-84.07" font-family="Times,serif" font-size="10.00">updates</text>
</g>
<!-- fs&#45;&gt;ma -->
<g id="edge7" class="edge">
<title>fs-&gt;ma</title>
<path fill="none" stroke="blue" d="M415.29,-102.9C397.47,-105.68 373.81,-111 354.97,-121 347.99,-124.71 341.24,-129.78 335.22,-135.06"/>
<polygon fill="blue" stroke="blue" points="332.96,-132.39 328.07,-141.79 337.75,-137.48 332.96,-132.39"/>
<text text-anchor="middle" x="370.24" y="-124" font-family="Times,serif" font-size="10.00">notifies</text>
</g>
<!-- fs&#45;&gt;mb -->
<g id="edge13" class="edge">
<title>fs-&gt;mb</title>
<path fill="none" stroke="blue" d="M424.71,-81.88C414.45,-72.17 400.47,-61.17 385.52,-56 373.84,-51.96 360.5,-51.07 348.37,-51.55"/>
<polygon fill="blue" stroke="blue" points="348.42,-48.03 338.7,-52.25 348.93,-55.01 348.42,-48.03"/>
<text text-anchor="middle" x="370.24" y="-59" font-family="Times,serif" font-size="10.00">notifies</text>
</g>
</g>
</svg>